<svg width="239" height="184" viewBox="0 0 239 184" fill="none" xmlns="http://www.w3.org/2000/svg">
<path d="M80.1619 39.5859H223.664C227.601 39.5859 231.377 38.0219 234.161 35.2379C236.945 32.4539 238.509 28.6781 238.509 24.7409C238.509 20.8038 236.945 17.0279 234.161 14.2439C231.377 11.4599 227.601 9.89587 223.664 9.89587H80.1619C76.2248 9.89587 72.4489 11.4599 69.6649 14.2439C66.8809 17.0279 65.3169 20.8038 65.3169 24.7409C65.3169 28.6781 66.8809 32.4539 69.6649 35.2379C72.4489 38.0219 76.2248 39.5859 80.1619 39.5859Z" fill="white"/>
<path d="M223.664 79.1722H80.1619C76.2248 79.1722 72.4489 80.7363 69.6649 83.5202C66.8809 86.3042 65.3169 90.0801 65.3169 94.0173C65.3169 97.9544 66.8809 101.73 69.6649 104.514C72.4489 107.298 76.2248 108.862 80.1619 108.862H223.664C227.601 108.862 231.377 107.298 234.161 104.514C236.945 101.73 238.509 97.9544 238.509 94.0173C238.509 90.0801 236.945 86.3042 234.161 83.5202C231.377 80.7363 227.601 79.1722 223.664 79.1722Z" fill="white"/>
<path d="M223.664 148.449H80.1619C76.2248 148.449 72.4489 150.013 69.6649 152.797C66.8809 155.581 65.3169 159.357 65.3169 163.294C65.3169 167.231 66.8809 171.007 69.6649 173.791C72.4489 176.575 76.2248 178.139 80.1619 178.139H223.664C227.601 178.139 231.377 176.575 234.161 173.791C236.945 171.007 238.509 167.231 238.509 163.294C238.509 159.357 236.945 155.581 234.161 152.797C231.377 150.013 227.601 148.449 223.664 148.449Z" fill="white"/>
<path d="M25.7285 49.4822C39.393 49.4822 50.4703 38.405 50.4703 24.7405C50.4703 11.076 39.393 -0.0012207 25.7285 -0.0012207C12.0641 -0.0012207 0.986816 11.076 0.986816 24.7405C0.986816 38.405 12.0641 49.4822 25.7285 49.4822Z" fill="white"/>
<path d="M25.7285 113.811C39.393 113.811 50.4703 102.734 50.4703 89.0693C50.4703 75.4048 39.393 64.3276 25.7285 64.3276C12.0641 64.3276 0.986816 75.4048 0.986816 89.0693C0.986816 102.734 12.0641 113.811 25.7285 113.811Z" fill="white"/>
<path d="M25.7285 183.087C39.393 183.087 50.4703 172.01 50.4703 158.346C50.4703 144.681 39.393 133.604 25.7285 133.604C12.0641 133.604 0.986816 144.681 0.986816 158.346C0.986816 172.01 12.0641 183.087 25.7285 183.087Z" fill="white"/>
</svg>
