<svg width="275" height="206" viewBox="0 0 275 206" fill="none" xmlns="http://www.w3.org/2000/svg">
<path d="M272.489 53.6283C275.045 51.0722 275.045 46.9278 272.489 44.3717L230.834 2.71653C228.278 0.160366 224.134 0.160366 221.577 2.71653C219.021 5.2727 219.021 9.41706 221.577 11.9732L258.604 49L221.577 86.0268C219.021 88.5829 219.021 92.7273 221.577 95.2835C224.134 97.8396 228.278 97.8396 230.834 95.2835L272.489 53.6283ZM0 55.5455H267.861V42.4545H0V55.5455Z" fill="white"/>
<path d="M2.42099 152.372C-0.135162 154.928 -0.135162 159.072 2.42099 161.628L44.0761 203.283C46.6323 205.84 50.7766 205.84 53.3328 203.283C55.889 200.727 55.889 196.583 53.3328 194.027L16.306 157L53.3328 119.973C55.889 117.417 55.889 113.273 53.3328 110.717C50.7766 108.16 46.6323 108.16 44.0761 110.717L2.42099 152.372ZM274.91 150.455H7.04935V163.545H274.91V150.455Z" fill="white"/>
</svg>
