<svg width="212" height="212" viewBox="0 0 212 212" fill="none" xmlns="http://www.w3.org/2000/svg">
<path d="M57.0769 0C39.0569 0 23.4668 7.47708 13.7555 19.6182C4.06062 31.7674 0 47.5043 0 64.4643V89.6923H24.4615V64.4643C24.4615 51.5812 27.6334 41.4705 32.8682 34.9066C38.1111 28.3509 45.1805 24.4615 57.0769 24.4615C69.006 24.4615 76.0591 28.1308 81.2857 34.6538C86.5042 41.1769 89.6923 51.4508 89.6923 64.4643V73.3846H114.154V64.4643C114.154 47.4065 109.857 31.4902 100.137 19.3654C90.4262 7.24061 75.0643 0 57.0769 0ZM73.3846 81.5385C59.8818 81.5385 48.9231 92.4972 48.9231 106V187.538C48.9231 201.041 59.8818 212 73.3846 212H187.538C201.041 212 212 201.041 212 187.538V106C212 92.4972 201.041 81.5385 187.538 81.5385H73.3846ZM130.462 122.308C134.787 122.308 138.935 124.026 141.993 127.084C145.051 130.142 146.769 134.29 146.769 138.615C146.769 144.633 143.475 149.802 138.615 152.632V171.231C138.615 175.724 134.954 179.385 130.462 179.385C125.969 179.385 122.308 175.724 122.308 171.231V152.632C117.448 149.802 114.154 144.641 114.154 138.615C114.154 134.29 115.872 130.142 118.93 127.084C121.989 124.026 126.136 122.308 130.462 122.308Z" fill="white"/>
</svg>
