<svg width="180" height="192" viewBox="0 0 180 192" fill="none" xmlns="http://www.w3.org/2000/svg">
<path d="M58.3681 77.3395L114.619 132.619C120.935 138.823 127.503 137.831 133.395 132.037L175.161 91.1586C181.053 85.3683 181.983 78.9142 175.664 72.7073L167.16 64.4314C157.143 73.2016 129.016 92.8992 124.64 88.5953C123.206 87.1865 124.388 85.9473 125.229 85.1176C134.491 75.7684 146.868 60.8724 148.47 45.8953L104.093 2.28447C98.8725 -1.52866 91.123 -0.116388 86.9159 3.19538C78.4119 15.0302 78.5808 34.8055 58.3681 58.4751C52.8137 65.0951 51.8868 70.9702 58.3681 77.3395ZM8.68779 183.592C19.8037 194.35 33.783 194.678 43.7169 184.916C51.5491 177.303 59.7154 156.864 65.3595 147.349L88.935 170.433C95.6714 177.056 103.166 177.219 109.482 171.015L114.788 165.719C121.101 159.512 120.932 152.147 114.282 145.524L47.5073 79.9098C40.7709 73.2051 33.3627 73.0427 26.9604 79.4155L21.6576 84.6197C15.1727 90.9079 15.3415 98.1069 22.1605 104.812L45.5708 127.899C35.971 133.442 15.09 141.552 7.34411 149.164C-2.84847 159.096 -2.34189 172.918 8.68779 183.592ZM20.1414 171.919C17.3606 169.105 17.278 164.639 20.1414 161.825C23.0875 159.011 27.6359 159.011 30.4993 161.825C33.3627 164.72 33.3627 169.024 30.4993 171.923C27.6359 174.818 23.0875 174.896 20.1414 171.919Z" fill="white"/>
</svg>
