<svg width="163" height="186" viewBox="0 0 163 186" fill="none" xmlns="http://www.w3.org/2000/svg">
<path d="M127.047 81.6043C120.957 76.1367 112.396 71.6949 103.021 69.0484C100.796 60.9616 93.3662 55.0029 84.5701 55.0029C76.4082 55.0029 69.4216 60.1322 66.6773 67.335C13.5783 92.7687 1.08673 130.469 0.0207022 157.769C-0.296372 165.965 3.03837 173.708 9.36345 179.241C14.5733 183.792 21.4615 185.963 28.3824 185.963H81.8367C84.8544 185.963 87.3035 183.519 87.3035 180.507C87.3035 177.495 84.8544 175.05 81.8367 175.05H65.4364V166.865C65.4364 153.305 54.4208 142.31 40.8358 142.31H37.5776C33.5157 142.31 30.9628 138.043 32.7613 134.403C32.7777 134.365 32.7941 134.332 32.816 134.294C33.7126 132.488 35.615 131.397 37.6322 131.397H42.2681C54.1037 131.397 64.5617 137.404 70.7446 146.522C70.7446 146.522 72.658 136.886 73.0789 134.059L102.949 180.911C104.956 184.059 108.438 185.963 112.172 185.963H120.104C123.122 185.963 125.571 183.519 125.571 180.507C125.571 177.495 123.122 175.05 120.104 175.05H112.172L77.2282 120.243C93.9511 119.004 115.217 112.827 127.933 98.4545C132.295 93.5271 131.896 85.9696 127.042 81.6097L127.047 81.6043ZM84.5701 82.2864C80.0491 82.2864 76.3699 78.614 76.3699 74.1013C76.3699 69.5887 80.0491 65.9163 84.5701 65.9163C89.0912 65.9163 92.7703 69.5887 92.7703 74.1013C92.7703 78.614 89.0912 82.2864 84.5701 82.2864Z" fill="#FFF8F8"/>
<path d="M31.415 45.4V44.2004C31.4113 41.7409 30.3116 39.3831 28.3571 37.6439C26.4025 35.9048 23.7526 34.9264 20.9884 34.9231H18.659V31.4308H12.7716V34.9231H10.4421C7.93896 34.9198 5.518 35.7179 3.62149 37.1715C1.72499 38.6252 0.479528 40.6374 0.112633 42.8406C-0.254263 45.0438 0.281895 47.2909 1.62316 49.1714C2.96443 51.0519 5.02128 52.4403 7.41797 53.083L12.7716 54.3856V64.6075H10.4421C9.23874 64.6061 8.08509 64.1802 7.23416 63.423C6.38324 62.6659 5.90451 61.6394 5.90295 60.5687V59.3691H0.0155638V60.5687C0.0191985 63.0282 1.11888 65.386 3.07345 67.1251C5.02802 68.8642 7.67794 69.8427 10.4421 69.8459H12.7716V73.3382H18.659V69.8459H20.9884C23.4916 69.8492 25.9125 69.0512 27.809 67.5975C29.7055 66.1439 30.951 64.1317 31.3179 61.9285C31.6848 59.7253 31.1486 57.4782 29.8074 55.5977C28.4661 53.7172 26.4092 52.3287 24.0125 51.6861L18.659 50.3869V40.1615H20.9884C22.1918 40.1629 23.3454 40.5889 24.1964 41.346C25.0473 42.1031 25.526 43.1296 25.5276 44.2004V45.4H31.415ZM22.3523 56.7132C23.3876 57.0035 24.2718 57.6142 24.8446 58.4345C25.4175 59.2549 25.6412 60.2307 25.4751 61.1852C25.309 62.1397 24.7641 63.0096 23.9393 63.6374C23.1144 64.2652 22.0641 64.6094 20.9786 64.6075H18.659V55.8157L22.3523 56.7132ZM12.7716 48.9534L9.07821 48.0558C8.04373 47.7658 7.1601 47.1558 6.58719 46.3364C6.01428 45.5169 5.78993 44.5421 5.95473 43.5882C6.11953 42.6343 6.6626 41.7644 7.48568 41.1359C8.30876 40.5074 9.35749 40.1618 10.4421 40.1615H12.7716V48.9534Z" fill="white"/>
<path d="M94.2777 13.9691V12.7695C94.2741 10.31 93.1744 7.95221 91.2199 6.21309C89.2653 4.47397 86.6154 3.49551 83.8512 3.49228H81.5217V0H75.6344V3.49228H73.3049C70.8018 3.48896 68.3808 4.28702 66.4843 5.74067C64.5878 7.19432 63.3423 9.20653 62.9754 11.4097C62.6085 13.6129 63.1447 15.86 64.486 17.7405C65.8272 19.621 67.8841 21.0095 70.2808 21.6521L75.6344 22.9548V33.1767H73.3049C72.1015 33.1753 70.9479 32.7493 70.097 31.9922C69.246 31.2351 68.7673 30.2086 68.7657 29.1378V27.9382H62.8784V29.1378C62.882 31.5973 63.9817 33.9551 65.9362 35.6943C67.8908 37.4334 70.5407 38.4118 73.3049 38.4151H75.6344V41.9074H81.5217V38.4151H83.8512C86.3543 38.4184 88.7753 37.6203 90.6718 36.1667C92.5683 34.713 93.8138 32.7008 94.1807 30.4976C94.5476 28.2945 94.0114 26.0474 92.6701 24.1668C91.3289 22.2863 89.272 20.8979 86.8753 20.2552L81.5217 18.9561V8.7307H83.8512C85.0546 8.73209 86.2082 9.15805 87.0591 9.91517C87.9101 10.6723 88.3888 11.6988 88.3904 12.7695V13.9691H94.2777ZM85.2151 25.2824C86.2504 25.5727 87.1346 26.1833 87.7074 27.0037C88.2803 27.8241 88.5039 28.7999 88.3379 29.7543C88.1718 30.7088 87.6269 31.5788 86.8021 32.2066C85.9772 32.8344 84.9269 33.1785 83.8414 33.1767H81.5217V24.3848L85.2151 25.2824ZM75.6344 17.5225L71.941 16.625C70.9065 16.3349 70.0229 15.725 69.45 14.9055C68.8771 14.0861 68.6527 13.1112 68.8175 12.1573C68.9823 11.2035 69.5254 10.3336 70.3485 9.70506C71.1716 9.07655 72.2203 8.73092 73.3049 8.7307H75.6344V17.5225Z" fill="white"/>
<path d="M162.376 45.4V44.2004C162.373 41.7409 161.273 39.3831 159.318 37.6439C157.364 35.9048 154.714 34.9264 151.95 34.9231H149.62V31.4308H143.733V34.9231H141.404C138.9 34.9198 136.479 35.7179 134.583 37.1715C132.686 38.6252 131.441 40.6374 131.074 42.8406C130.707 45.0438 131.243 47.2909 132.585 49.1714C133.926 51.0519 135.983 52.4403 138.379 53.083L143.733 54.3856V64.6075H141.404C140.2 64.6061 139.047 64.1802 138.196 63.423C137.345 62.6659 136.866 61.6394 136.864 60.5687V59.3691H130.977V60.5687C130.981 63.0282 132.08 65.386 134.035 67.1251C135.989 68.8642 138.639 69.8427 141.404 69.8459H143.733V73.3382H149.62V69.8459H151.95C154.453 69.8492 156.874 69.0512 158.77 67.5975C160.667 66.1439 161.912 64.1317 162.279 61.9285C162.646 59.7253 162.11 57.4782 160.769 55.5977C159.428 53.7172 157.371 52.3287 154.974 51.6861L149.62 50.3869V40.1615H151.95C153.153 40.1629 154.307 40.5889 155.158 41.346C156.009 42.1031 156.487 43.1296 156.489 44.2004V45.4H162.376ZM153.314 56.7132C154.349 57.0035 155.233 57.6142 155.806 58.4345C156.379 59.2549 156.603 60.2307 156.436 61.1852C156.27 62.1397 155.726 63.0096 154.901 63.6374C154.076 64.2652 153.025 64.6094 151.94 64.6075H149.62V55.8157L153.314 56.7132ZM143.733 48.9534L140.04 48.0558C139.005 47.7658 138.122 47.1558 137.549 46.3364C136.976 45.5169 136.751 44.5421 136.916 43.5882C137.081 42.6343 137.624 41.7644 138.447 41.1359C139.27 40.5074 140.319 40.1618 141.404 40.1615H143.733V48.9534Z" fill="white"/>
</svg>
