<svg width="173" height="186" viewBox="0 0 173 186" fill="none" xmlns="http://www.w3.org/2000/svg">
<path d="M4.06647 139.471C10.6417 150.595 25.2235 154.417 36.6354 148.008L36.6585 147.995L40.1958 146.003C46.8731 151.572 54.5484 155.89 62.8351 158.742V162.717C62.8351 175.555 73.5122 185.962 86.6828 185.962C99.8535 185.962 110.531 175.555 110.531 162.717V158.742C118.818 155.886 126.494 151.562 133.17 145.988L136.723 147.987C148.138 154.406 162.73 150.59 169.315 139.463C175.901 128.337 171.986 114.114 160.571 107.695L157.041 105.711C158.63 97.2842 158.63 88.6456 157.041 80.2184L160.571 78.2349C171.985 71.8159 175.901 57.5926 169.315 46.4661C162.73 35.3398 148.138 31.5236 136.723 37.9426L133.186 39.9341C126.502 34.3723 118.821 30.0617 110.531 27.2192V23.2442C110.531 10.4062 99.8535 -0.0012207 86.6828 -0.0012207C73.5122 -0.0012207 62.8351 10.4062 62.8351 23.2442V27.2192C54.5473 30.0751 46.8717 34.3988 40.1958 39.9733L36.6425 37.9666C25.2276 31.5472 10.6358 35.3635 4.05045 46.4897C-2.53488 57.6159 1.37988 71.8395 12.7947 78.2586L16.3242 80.2421C14.7353 88.6689 14.7353 97.3075 16.3242 105.735L12.7947 107.718C1.41155 114.154 -2.49054 128.35 4.06647 139.471ZM86.6828 61.9867C104.244 61.9867 118.48 75.8632 118.48 92.9806C118.48 110.098 104.244 123.974 86.6828 123.974C69.122 123.974 54.886 110.098 54.886 92.9806C54.886 75.8632 69.122 61.9867 86.6828 61.9867Z" fill="white"/>
</svg>
