<svg width="253" height="188" viewBox="0 0 253 188" fill="none" xmlns="http://www.w3.org/2000/svg">
<path d="M210.88 68.9148V69.1335C210.88 72.6751 207.983 75.5501 204.414 75.5501H201.096C199.826 88.8312 194.619 103.998 184.226 115.821C189.916 119.248 196.74 121.695 205.054 122.477C208.361 122.789 210.88 125.56 210.88 128.862V129.081C210.88 132.893 207.563 135.831 203.742 135.466C191.805 134.331 182.126 130.372 174.263 124.82C166.358 130.425 156.564 134.352 144.533 135.466C140.712 135.82 137.405 132.883 137.405 129.07V128.852C137.405 125.508 140.009 122.768 143.368 122.456C151.64 121.675 158.464 119.258 164.122 115.841C160.669 111.914 157.771 107.612 155.409 103.133C153.152 98.852 156.354 93.727 161.214 93.727C163.608 93.727 165.834 95.0082 166.936 97.1124C168.867 100.779 171.292 104.3 174.2 107.529C182.788 97.9457 186.714 85.5708 187.879 75.5397H143.882C140.313 75.5397 137.416 72.6647 137.416 69.1231V68.9043C137.416 65.3627 140.313 62.4877 143.882 62.4877H167.576V58.4878C167.576 54.9461 170.474 52.0712 174.043 52.0712H174.263C177.833 52.0712 180.73 54.9461 180.73 58.4878V62.4877H204.424C207.993 62.4877 210.891 65.3627 210.891 68.9043L210.88 68.9148ZM63.7621 66.6648C63.3631 66.6648 63.0167 66.9356 62.9327 67.321L54.4189 103.123H72.8638L64.6019 67.321C64.5074 66.9356 64.161 66.6648 63.7621 66.6648ZM252.872 57.2899V130.206C252.872 161.799 226.963 187.497 195.133 187.497H58.6601C26.7778 187.497 0.921387 161.851 0.921387 130.206V57.2899C0.921387 25.6444 26.7778 -0.0012207 58.6601 -0.0012207H195.133C226.963 -0.0012207 252.872 25.6964 252.872 57.2899ZM93.3453 126.498L79.0366 64.5398C77.9133 59.7065 74.8059 55.3107 70.1973 53.3941C60.5497 49.3837 50.7236 55.0087 48.6135 64.0294L33.7799 126.456C32.6882 131.029 36.1945 135.414 40.929 135.414C44.3304 135.414 47.2908 133.091 48.0781 129.8L50.9546 117.706H76.2441L79.0261 129.758C79.7924 133.07 82.7633 135.414 86.1857 135.414H86.2067C90.9202 135.414 94.4161 131.06 93.3663 126.498H93.3453ZM221.378 57.2899C221.378 42.9358 209.61 31.2485 195.133 31.2485H126.897V156.247H195.133C209.61 156.247 221.378 144.56 221.378 130.206V57.2899Z" fill="white"/>
</svg>
