<svg width="231" height="231" viewBox="0 0 231 231" fill="none" xmlns="http://www.w3.org/2000/svg">
<path d="M228.3 214.702L170.896 157.297C186.539 138.165 194.231 113.752 192.379 89.1079C190.527 64.4638 179.274 41.4741 160.948 24.8941C142.621 8.31416 118.623 -0.587597 93.9172 0.0301265C69.2114 0.64785 45.6881 10.7378 28.2129 28.2129C10.7378 45.6881 0.64785 69.2114 0.0301265 93.9172C-0.587597 118.623 8.31416 142.621 24.8941 160.948C41.4741 179.274 64.4638 190.527 89.1079 192.379C113.752 194.231 138.165 186.539 157.297 170.896L214.702 228.3C216.516 230.052 218.945 231.022 221.466 231C223.988 230.978 226.4 229.966 228.183 228.183C229.966 226.4 230.978 223.988 231 221.466C231.022 218.945 230.052 216.516 228.3 214.702ZM96.4788 173.416C81.2621 173.416 66.3872 168.903 53.735 160.449C41.0828 151.995 31.2216 139.98 25.3985 125.921C19.5753 111.863 18.0517 96.3935 21.0203 81.4692C23.989 66.5449 31.3165 52.8361 42.0763 42.0763C52.8361 31.3165 66.5449 23.989 81.4692 21.0203C96.3935 18.0517 111.863 19.5753 125.921 25.3985C139.98 31.2216 151.995 41.0828 160.449 53.735C168.903 66.3872 173.416 81.2621 173.416 96.4788C173.393 116.877 165.279 136.433 150.856 150.856C136.433 165.279 116.877 173.393 96.4788 173.416Z" fill="gray"/>
</svg>
